<?xml version="1.0" ?><svg id="Icons" style="enable-background:new 0 0 32 32;" version="1.1" viewBox="0 0 32 32" xml:space="preserve" xmlns="http://www.w3.org/2000/svg" xmlns:xlink="http://www.w3.org/1999/xlink"><style type="text/css">
	.st0{fill:none;stroke:#000000;stroke-width:2;stroke-linecap:round;stroke-linejoin:round;stroke-miterlimit:10;}
</style><path class="st0" d="M22.1,11.4c0.6-1,0.9-2.2,0.9-3.4c0-3.9-3.1-7-7-7S9,4.1,9,8c0,1.2,0.3,2.4,0.9,3.4C8.7,12.1,8,13,8,14  c0,2.2,3.6,3,8,3s8-0.8,8-3C24,13,23.3,12.1,22.1,11.4z"/><polyline class="st0" points="10,17 16,31 22,17 "/><path class="st0" d="M10,11.2c1.5,0.6,3.6,0.8,6,0.8"/></svg>